<svg viewBox="0 0 17 16" xmlns="http://www.w3.org/2000/svg">
    <path d="M16.1272 15.6473L16.6251 15.182C17.1247 14.7117 17.1247 13.9492 16.6268 13.4806L13.4992 10.5399C14.2104 9.48015 14.6233 8.22125 14.6233 6.8758C14.6233 3.0795 11.35 0 7.31164 0C3.27333 0 0 3.0795 0 6.8758C0 10.6721 3.27333 13.75 7.30991 13.75C8.73407 13.75 10.0628 13.3663 11.1869 12.705L14.318 15.6473C14.8176 16.1176 15.6277 16.1176 16.1272 15.6473ZM2.02436 6.8758C2.02436 4.12777 4.39219 1.90223 7.31164 1.90223C10.2311 1.90223 12.5989 4.1294 12.5989 6.8758C12.5989 9.62057 10.2328 11.8477 7.31164 11.8477C4.39219 11.8477 2.02436 9.62057 2.02436 6.8758Z" fill="currentColor"/>
</svg>