<svg viewBox="0 0 20 16" xmlns="http://www.w3.org/2000/svg">
    <path d="M2.37378 0H17.6262C18.9351 0 20 1.03574 20 2.3088V13.0758C20 14.3489 18.9351 15.3846 17.6262 15.3846H2.37378C1.06486 15.3846 0 14.3489 0 13.0758V2.3088C0 1.03574 1.06486 0 2.37378 0ZM2.01252 13.0759C2.01263 13.2199 2.18143 13.3463 2.37378 13.3463H17.6262C17.8186 13.3463 17.9873 13.2199 17.9873 13.0758V3.73257L11.0891 9.63087C10.9476 9.75184 10.7678 9.81841 10.5826 9.81841L9.41759 9.81847C9.23251 9.81847 9.05257 9.75184 8.91109 9.63087L2.01252 3.73236V13.0759ZM16.7094 2.0383L9.99997 7.79454L3.29056 2.0383H16.7094Z" fill="currentColor"/>
</svg>