<svg viewBox="0 0 19 18" xmlns="http://www.w3.org/2000/svg">
    <path d="M17.5999 14.2077L14.8196 11.4271C14.2658 10.8755 13.3487 10.8922 12.7756 11.4655L11.3748 12.866C11.2863 12.8172 11.1947 12.7663 11.0984 12.7122C10.2138 12.2221 9.00316 11.5503 7.72917 10.2754C6.45141 8.99778 5.77901 7.78524 5.28739 6.90011C5.23551 6.80634 5.1858 6.71593 5.13672 6.63007L6.07683 5.69135L6.53903 5.22858C7.113 4.65446 7.12883 3.73762 6.57632 3.18444L3.79596 0.40346C3.24346 -0.148941 2.32594 -0.132182 1.75198 0.441941L0.968374 1.23004L0.989787 1.2513C0.727035 1.58657 0.507471 1.97325 0.344079 2.39024C0.193462 2.78716 0.099688 3.16593 0.0568097 3.54547C-0.310319 6.58905 1.08051 9.37065 4.85504 13.1452C10.0726 18.3624 14.2772 17.9683 14.4586 17.949C14.8537 17.9018 15.2323 17.8074 15.6171 17.658C16.0304 17.4965 16.4169 17.2773 16.7519 17.0151L16.769 17.0303L17.5629 16.253C18.1357 15.6789 18.1522 14.7618 17.5999 14.2077Z" fill="currentColor"/>
</svg>